<?xml version="1.0" encoding="UTF-8" standalone="no" ?>
<!DOCTYPE svg PUBLIC "-//W3C//DTD SVG 1.1//EN" "http://www.w3.org/Graphics/SVG/1.1/DTD/svg11.dtd">
<svg xmlns="http://www.w3.org/2000/svg" xmlns:xlink="http://www.w3.org/1999/xlink" version="1.1" width="1280" height="1024" viewBox="0 0 1280 1024" xml:space="preserve">
<desc>Created with Fabric.js 3.6.3</desc>
<defs>
</defs>
<g transform="matrix(1.9662058371735793 0 0 1.9662058371735793 640.2456813819576 512.1966205837173)" id="background-logo"  >
<rect style="stroke: none; stroke-width: 1; stroke-dasharray: none; stroke-linecap: butt; stroke-dashoffset: 0; stroke-linejoin: miter; stroke-miterlimit: 4; fill: rgb(255,255,255); fill-rule: nonzero; opacity: 1;"  paint-order="stroke"  x="-325" y="-260" rx="0" ry="0" width="650" height="520" />
</g>
<g transform="matrix(1.9699870022450665 0 0 1.9699870022450665 640.2456813819578 421.5687788331531)" id="logo-logo"  >
<g style=""  paint-order="stroke"   >
		<g transform="matrix(1.4953369620679504 0 0 -1.4953369620679502 0 0)"  >
<path style="stroke: none; stroke-width: 1; stroke-dasharray: none; stroke-linecap: butt; stroke-dashoffset: 0; stroke-linejoin: miter; stroke-miterlimit: 4; fill: rgb(23,23,24); fill-rule: nonzero; opacity: 1;"  paint-order="stroke"  transform=" translate(0, -83.28150000000001)" d="M 0 0 L -16.896 19.343 L 0 24.368 L 16.896 19.343 Z M 36.626 131.12 H 57.134 V 103.988 H 0 H -57.134 v 27.132 h 20.508 z m -66.859 29.859 l 15.31 -12.183 L 0 166.397 L 14.923 148.796 L 30.233 160.979 V 137.512 H -30.233 Z M 33.896 51.724 L 47.345 54.196 L 36.623 41.923 Z m -30.7 -12.273 l 14.14 11.468 l -5.069 21.472 l 44.911 8.356 l 5.474 16.849 H 85.257 L 54.106 61.938 L 25.857 56.75 L 31.589 36.161 L 21.519 24.631 L 3.196 30.084 Z m -66.722 64.537 h -21.301 l 21.301 22.343 z m 53.797 -48.656 l 5.228 22.115 l -47.77 8.887 l -3.658 11.262 H 0 H 55.929 L 52.271 86.334 L 4.507 77.447 L 9.727 55.332 Z M 0 45.085 L -4.754 48.939 H 4.751 Z M 63.526 126.331 L 84.83 103.988 H 63.526 Z M -54.106 61.938 L -85.257 97.596 h 22.605 l 5.475 -16.849 l 44.91 -8.356 l -5.082 -21.472 l 14.153 -11.472 v -9.363 l -18.323 -5.453 l -10.069 11.53 l 5.724 20.589 z m 17.483 -20.015 l -10.722 12.273 l 13.45 -2.472 z M 24.122 17.895 L 96.619 100.886 L 61.7 137.512 H 36.626 v 36.726 L 15.788 157.654 L 0 176.28 L -15.794 157.654 L -36.626 174.238 V 137.512 H -61.7 l -34.919 -36.626 l 72.497 -82.991 l 0.193 -0.647 l 0.294 0.088 L 0 -9.717 L 23.635 17.336 L 23.929 17.248 Z" stroke-linecap="round" />
</g>
		<g transform="matrix(1.4953369620679504 0 0 -1.4953369620679502 57.95163443124716 -51.24609489224591)"  >
<path style="stroke: none; stroke-width: 1; stroke-dasharray: none; stroke-linecap: butt; stroke-dashoffset: 0; stroke-linejoin: miter; stroke-miterlimit: 4; fill: rgb(23,23,24); fill-rule: nonzero; opacity: 1;"  paint-order="stroke"  transform=" translate(0, -5.3265)" d="M 0 0 C 2.94 0 5.325 2.385 5.325 5.325 C 5.325 8.269 2.94 10.653 0 10.653 C -2.94 10.653 -5.325 8.269 -5.325 5.325 C -5.325 2.385 -2.94 0 0 0" stroke-linecap="round" />
</g>
		<g transform="matrix(1.4953369620679504 0 0 -1.4953369620679502 0.00044860108869215765 -50.42066888918433)"  >
<path style="stroke: none; stroke-width: 1; stroke-dasharray: none; stroke-linecap: butt; stroke-dashoffset: 0; stroke-linejoin: miter; stroke-miterlimit: 4; fill: rgb(23,23,24); fill-rule: nonzero; opacity: 1;"  paint-order="stroke"  transform=" translate(21.1755, -0.0015000000000000568)" d="M 0 0 L -21.176 8.524 L -42.351 0 L -21.176 -8.521 Z" stroke-linecap="round" />
</g>
		<g transform="matrix(1.4953369620679504 0 0 -1.4953369620679502 -57.951634431247214 -51.24609489224591)"  >
<path style="stroke: none; stroke-width: 1; stroke-dasharray: none; stroke-linecap: butt; stroke-dashoffset: 0; stroke-linejoin: miter; stroke-miterlimit: 4; fill: rgb(23,23,24); fill-rule: nonzero; opacity: 1;"  paint-order="stroke"  transform=" translate(0, -5.3265)" d="M 0 0 C 2.94 0 5.325 2.385 5.325 5.325 C 5.325 8.269 2.94 10.653 0 10.653 C -2.94 10.653 -5.325 8.269 -5.325 5.325 C -5.325 2.385 -2.94 0 0 0" stroke-linecap="round" />
</g>
</g>
</g>
<g transform="matrix(1.9699870022450665 0 0 1.9699870022450665 641.3234989776684 796.337442131937)" id="text-logo-path"  >
<path style="stroke: rgb(23,23,24); stroke-width: 17; stroke-dasharray: none; stroke-linecap: butt; stroke-dashoffset: 0; stroke-linejoin: miter; stroke-miterlimit: 4; fill: rgb(255,255,255); fill-rule: nonzero; opacity: 1;"  paint-order="stroke"  transform=" translate(-312.86, 9.175)" d="M 11.1 0 L 2.06 0 L 2.06 -18.36 L 10.02 -18.36 Q 11.96 -18.36 13.34 -18 Q 14.73 -17.63 15.51 -16.93 Q 16.29 -16.24 16.65 -15.35 Q 17.01 -14.46 17.01 -13.32 L 17.01 -13.32 Q 17.01 -12.66 16.8 -12.02 Q 16.6 -11.39 16.29 -10.95 Q 15.98 -10.51 15.73 -10.22 Q 15.48 -9.94 15.28 -9.8 L 15.28 -9.8 Q 16.61 -9.12 17.32 -7.98 Q 18.04 -6.83 18.04 -5.35 L 18.04 -5.35 Q 18.04 -4.19 17.65 -3.25 Q 17.26 -2.31 16.46 -1.56 Q 15.66 -0.82 14.3 -0.41 Q 12.93 0 11.1 0 L 11.1 0 Z M 6.49 -7.37 L 6.49 -3.81 L 10.59 -3.81 Q 13.26 -3.81 13.26 -5.59 L 13.26 -5.59 Q 13.26 -6.57 12.61 -6.97 Q 11.96 -7.37 10.59 -7.37 L 10.59 -7.37 L 6.49 -7.37 Z M 6.49 -14.58 L 6.49 -10.74 L 10.28 -10.74 Q 11.69 -10.74 12.25 -11.2 Q 12.8 -11.65 12.8 -12.75 L 12.8 -12.75 Q 12.8 -14.58 10.28 -14.58 L 10.28 -14.58 L 6.49 -14.58 Z M 29.25 0 L 21.13 0 L 21.13 -18.34 L 29.25 -18.36 Q 29.29 -18.36 29.33 -18.36 L 29.33 -18.36 Q 31.51 -18.38 33.31 -17.69 L 33.31 -17.69 Q 35.15 -17.01 36.37 -15.78 Q 37.6 -14.55 38.27 -12.87 Q 38.94 -11.18 38.94 -9.2 L 38.94 -9.2 Q 38.94 -6.55 37.72 -4.46 Q 36.51 -2.36 34.29 -1.18 Q 32.08 0 29.25 0 L 29.25 0 Z M 25.56 -14.25 L 25.56 -4.1 L 29.25 -4.1 Q 31.57 -4.1 33.02 -5.5 Q 34.46 -6.91 34.46 -9.2 L 34.46 -9.2 Q 34.46 -11.63 33.06 -12.94 Q 31.65 -14.25 29.25 -14.25 L 29.25 -14.25 L 25.56 -14.25 Z M 41.21 -6.42 L 41.21 -6.42 L 45.62 -6.42 Q 45.63 -6.3 45.67 -6.1 Q 45.72 -5.91 45.98 -5.41 Q 46.23 -4.9 46.62 -4.52 Q 47.01 -4.14 47.8 -3.82 Q 48.59 -3.51 49.61 -3.51 L 49.61 -3.51 Q 50.98 -3.51 51.65 -3.99 Q 52.31 -4.47 52.31 -5.13 L 52.31 -5.13 Q 52.31 -5.47 52.12 -5.75 Q 51.93 -6.02 51.67 -6.21 Q 51.42 -6.39 50.93 -6.57 Q 50.44 -6.75 50.07 -6.85 Q 49.7 -6.95 49.07 -7.11 L 49.07 -7.11 Q 46.45 -7.73 45.21 -8.24 L 45.21 -8.24 Q 41.49 -9.78 41.49 -12.85 L 41.49 -12.85 Q 41.49 -14.5 42.48 -15.84 Q 43.48 -17.18 45.19 -17.93 Q 46.89 -18.68 48.96 -18.68 L 48.96 -18.68 Q 50.68 -18.68 52.11 -18.13 Q 53.54 -17.57 54.43 -16.68 Q 55.32 -15.79 55.8 -14.72 Q 56.28 -13.65 56.28 -12.55 L 56.28 -12.55 L 51.88 -12.55 Q 51.88 -13.33 51.05 -14.02 Q 50.23 -14.71 48.91 -14.71 L 48.91 -14.71 Q 47.82 -14.71 46.89 -14.26 Q 45.97 -13.8 45.97 -13.06 L 45.97 -13.06 Q 45.97 -12.45 46.77 -12.08 Q 47.57 -11.72 49.77 -11.15 L 49.77 -11.15 Q 52.27 -10.51 53.38 -10.01 L 53.38 -10.01 Q 56.39 -8.65 56.7 -6.05 L 56.7 -6.05 Q 56.74 -5.72 56.74 -5.38 L 56.74 -5.38 Q 56.74 -2.78 54.69 -1.23 Q 52.64 0.33 49.37 0.33 L 49.37 0.33 Q 47.71 0.33 46.32 -0.1 Q 44.93 -0.53 44.01 -1.22 Q 43.08 -1.91 42.44 -2.81 Q 41.79 -3.7 41.5 -4.62 Q 41.21 -5.54 41.21 -6.42 Z M 59.08 -9.32 L 59.08 -9.32 Q 59.08 -11.22 59.83 -12.93 Q 60.58 -14.65 61.88 -15.91 Q 63.19 -17.18 65.05 -17.93 Q 66.91 -18.68 69.02 -18.68 L 69.02 -18.68 Q 71.89 -18.68 74.14 -17.45 Q 76.39 -16.22 77.65 -14.09 L 77.65 -14.09 L 73.89 -11.9 Q 73.22 -13.2 71.97 -13.94 Q 70.72 -14.69 69.02 -14.69 L 69.02 -14.69 Q 66.63 -14.69 65.09 -13.15 Q 63.56 -11.61 63.56 -9.32 L 63.56 -9.32 Q 63.56 -7.87 64.24 -6.62 Q 64.93 -5.37 66.19 -4.6 Q 67.45 -3.84 69.02 -3.84 L 69.02 -3.84 Q 70.65 -3.84 71.9 -4.59 Q 73.14 -5.34 73.84 -6.62 L 73.84 -6.62 L 77.6 -4.46 Q 76.31 -2.29 74.07 -0.98 Q 71.82 0.33 69.02 0.33 L 69.02 0.33 Q 66.89 0.33 65.04 -0.42 Q 63.19 -1.17 61.88 -2.46 Q 60.58 -3.74 59.83 -5.52 Q 59.08 -7.3 59.08 -9.32 Z M 84.99 0 L 80.56 0 L 80.56 -18.36 L 84.99 -18.36 L 84.99 0 Z M 99.1 0 L 94.41 0 L 102.27 -18.36 L 107.2 -18.36 L 115.08 0 L 110.36 0 L 109.17 -2.86 L 100.31 -2.86 L 99.1 0 Z M 104.77 -13.34 L 101.86 -6.49 L 107.63 -6.49 L 104.77 -13.34 Z M 115.36 -6.42 L 115.36 -6.42 L 119.76 -6.42 Q 119.77 -6.3 119.82 -6.1 Q 119.87 -5.91 120.12 -5.41 Q 120.38 -4.9 120.77 -4.52 Q 121.16 -4.14 121.95 -3.82 Q 122.74 -3.51 123.75 -3.51 L 123.75 -3.51 Q 125.13 -3.51 125.79 -3.99 Q 126.46 -4.47 126.46 -5.13 L 126.46 -5.13 Q 126.46 -5.47 126.27 -5.75 Q 126.07 -6.02 125.82 -6.21 Q 125.56 -6.39 125.07 -6.57 Q 124.58 -6.75 124.22 -6.85 Q 123.85 -6.95 123.21 -7.11 L 123.21 -7.11 Q 120.59 -7.73 119.35 -8.24 L 119.35 -8.24 Q 115.63 -9.78 115.63 -12.85 L 115.63 -12.85 Q 115.63 -14.5 116.63 -15.84 Q 117.62 -17.18 119.33 -17.93 Q 121.04 -18.68 123.11 -18.68 L 123.11 -18.68 Q 124.82 -18.68 126.25 -18.13 Q 127.68 -17.57 128.57 -16.68 Q 129.46 -15.79 129.94 -14.72 Q 130.43 -13.65 130.43 -12.55 L 130.43 -12.55 L 126.02 -12.55 Q 126.02 -13.33 125.2 -14.02 Q 124.37 -14.71 123.06 -14.71 L 123.06 -14.71 Q 121.96 -14.71 121.04 -14.26 Q 120.12 -13.8 120.12 -13.06 L 120.12 -13.06 Q 120.12 -12.45 120.91 -12.08 Q 121.71 -11.72 123.91 -11.15 L 123.91 -11.15 Q 126.42 -10.51 127.52 -10.01 L 127.52 -10.01 Q 130.53 -8.65 130.85 -6.05 L 130.85 -6.05 Q 130.89 -5.72 130.89 -5.38 L 130.89 -5.38 Q 130.89 -2.78 128.84 -1.23 Q 126.79 0.33 123.52 0.33 L 123.52 0.33 Q 121.86 0.33 120.47 -0.1 Q 119.07 -0.53 118.15 -1.22 Q 117.23 -1.91 116.58 -2.81 Q 115.94 -3.7 115.65 -4.62 Q 115.36 -5.54 115.36 -6.42 Z M 133.27 -6.42 L 133.27 -6.42 L 137.68 -6.42 Q 137.69 -6.3 137.74 -6.1 Q 137.78 -5.91 138.04 -5.41 Q 138.3 -4.9 138.68 -4.52 Q 139.07 -4.14 139.86 -3.82 Q 140.66 -3.51 141.67 -3.51 L 141.67 -3.51 Q 143.04 -3.51 143.71 -3.99 Q 144.37 -4.47 144.37 -5.13 L 144.37 -5.13 Q 144.37 -5.47 144.18 -5.75 Q 143.99 -6.02 143.73 -6.21 Q 143.48 -6.39 142.99 -6.57 Q 142.5 -6.75 142.13 -6.85 Q 141.76 -6.95 141.13 -7.11 L 141.13 -7.11 Q 138.51 -7.73 137.27 -8.24 L 137.27 -8.24 Q 133.55 -9.78 133.55 -12.85 L 133.55 -12.85 Q 133.55 -14.5 134.55 -15.84 Q 135.54 -17.18 137.25 -17.93 Q 138.96 -18.68 141.02 -18.68 L 141.02 -18.68 Q 142.74 -18.68 144.17 -18.13 Q 145.6 -17.57 146.49 -16.68 Q 147.38 -15.79 147.86 -14.72 Q 148.34 -13.65 148.34 -12.55 L 148.34 -12.55 L 143.94 -12.55 Q 143.94 -13.33 143.11 -14.02 Q 142.29 -14.71 140.97 -14.71 L 140.97 -14.71 Q 139.88 -14.71 138.96 -14.26 Q 138.03 -13.8 138.03 -13.06 L 138.03 -13.06 Q 138.03 -12.45 138.83 -12.08 Q 139.63 -11.72 141.83 -11.15 L 141.83 -11.15 Q 144.33 -10.51 145.44 -10.01 L 145.44 -10.01 Q 148.45 -8.65 148.76 -6.05 L 148.76 -6.05 Q 148.8 -5.72 148.8 -5.38 L 148.8 -5.38 Q 148.8 -2.78 146.75 -1.23 Q 144.7 0.33 141.43 0.33 L 141.43 0.33 Q 139.77 0.33 138.38 -0.1 Q 136.99 -0.53 136.07 -1.22 Q 135.15 -1.91 134.5 -2.81 Q 133.85 -3.7 133.56 -4.62 Q 133.27 -5.54 133.27 -6.42 Z M 166.1 0 L 152.03 0 L 152.03 -18.36 L 166.1 -18.36 L 166.1 -14.25 L 156.46 -14.25 L 156.46 -11.1 L 164.5 -11.1 L 164.5 -7.26 L 156.46 -7.26 L 156.46 -4.1 L 166.1 -4.1 L 166.1 0 Z M 175.1 -14.25 L 168.6 -14.25 L 168.6 -18.36 L 186.1 -18.36 L 186.1 -14.25 L 179.59 -14.25 L 179.59 0 L 175.1 0 L 175.1 -14.25 Z M 200.93 -14.25 L 194.43 -14.25 L 194.43 -18.36 L 211.93 -18.36 L 211.93 -14.25 L 205.41 -14.25 L 205.41 0 L 200.93 0 L 200.93 -14.25 Z M 212.68 -9.18 L 212.68 -9.18 Q 212.68 -11.1 213.42 -12.85 Q 214.17 -14.61 215.43 -15.89 Q 216.7 -17.17 218.45 -17.92 Q 220.21 -18.68 222.14 -18.68 L 222.14 -18.68 Q 224.06 -18.68 225.82 -17.92 Q 227.58 -17.17 228.84 -15.89 Q 230.11 -14.61 230.86 -12.85 Q 231.62 -11.09 231.62 -9.18 L 231.62 -9.18 Q 231.62 -7.25 230.87 -5.49 Q 230.12 -3.73 228.85 -2.46 Q 227.58 -1.19 225.82 -0.43 Q 224.06 0.33 222.14 0.33 L 222.14 0.33 Q 219.56 0.33 217.38 -0.95 Q 215.2 -2.23 213.94 -4.41 Q 212.68 -6.59 212.68 -9.18 Z M 216.73 -9.18 L 216.73 -9.18 Q 216.73 -6.93 218.31 -5.36 Q 219.9 -3.78 222.14 -3.78 L 222.14 -3.78 Q 224.36 -3.78 225.94 -5.36 Q 227.52 -6.93 227.52 -9.18 L 227.52 -9.18 Q 227.52 -11.39 225.94 -12.97 Q 224.36 -14.55 222.14 -14.55 L 222.14 -14.55 Q 219.9 -14.55 218.31 -12.98 Q 216.73 -11.4 216.73 -9.18 Z M 238.97 0 L 234.54 0 L 234.54 -18.36 L 238.97 -18.36 L 238.97 -10.28 L 245.98 -18.36 L 251.54 -18.36 L 245.23 -10.96 L 252.89 0 L 247.14 0 L 242.12 -7.58 L 238.97 -4.13 L 238.97 0 Z M 269.71 0 L 255.64 0 L 255.64 -18.36 L 269.71 -18.36 L 269.71 -14.25 L 260.07 -14.25 L 260.07 -11.1 L 268.11 -11.1 L 268.11 -7.26 L 260.07 -7.26 L 260.07 -4.1 L 269.71 -4.1 L 269.71 0 Z M 277.48 0 L 273.02 0 L 273.02 -18.36 L 277.48 -18.36 L 286.77 -7.16 L 286.77 -18.36 L 291.23 -18.36 L 291.23 0 L 286.77 0 L 277.48 -11.23 L 277.48 0 Z M 299.5 0 L 295.08 0 L 295.08 -18.36 L 299.5 -18.36 L 299.5 0 Z M 321.1 0 L 302.81 0 L 302.81 -3.97 L 314.69 -14.25 L 303.53 -14.25 L 303.53 -18.36 L 320.9 -18.36 L 320.9 -14.45 L 309.35 -4.1 L 321.1 -4.1 L 321.1 0 Z M 328.81 0 L 324.12 0 L 331.98 -18.36 L 336.91 -18.36 L 344.79 0 L 340.07 0 L 338.88 -2.86 L 330.02 -2.86 L 328.81 0 Z M 334.48 -13.34 L 331.57 -6.49 L 337.34 -6.49 L 334.48 -13.34 Z M 349.71 -14.25 L 343.21 -14.25 L 343.21 -18.36 L 360.7 -18.36 L 360.7 -14.25 L 354.19 -14.25 L 354.19 0 L 349.71 0 L 349.71 -14.25 Z M 368.15 0 L 363.72 0 L 363.72 -18.36 L 368.15 -18.36 L 368.15 0 Z M 371.07 -9.18 L 371.07 -9.18 Q 371.07 -11.1 371.81 -12.85 Q 372.56 -14.61 373.82 -15.89 Q 375.09 -17.17 376.84 -17.92 Q 378.59 -18.68 380.53 -18.68 L 380.53 -18.68 Q 382.44 -18.68 384.2 -17.92 Q 385.96 -17.17 387.23 -15.89 Q 388.49 -14.61 389.25 -12.85 Q 390.01 -11.09 390.01 -9.18 L 390.01 -9.18 Q 390.01 -7.25 389.26 -5.49 Q 388.51 -3.73 387.24 -2.46 Q 385.96 -1.19 384.2 -0.43 Q 382.44 0.33 380.53 0.33 L 380.53 0.33 Q 377.95 0.33 375.77 -0.95 Q 373.58 -2.23 372.32 -4.41 Q 371.07 -6.59 371.07 -9.18 Z M 375.11 -9.18 L 375.11 -9.18 Q 375.11 -6.93 376.7 -5.36 Q 378.29 -3.78 380.53 -3.78 L 380.53 -3.78 Q 382.75 -3.78 384.33 -5.36 Q 385.91 -6.93 385.91 -9.18 L 385.91 -9.18 Q 385.91 -11.39 384.33 -12.97 Q 382.75 -14.55 380.53 -14.55 L 380.53 -14.55 Q 378.29 -14.55 376.7 -12.98 Q 375.11 -11.4 375.11 -9.18 Z M 397.1 0 L 392.65 0 L 392.65 -18.36 L 397.1 -18.36 L 406.4 -7.16 L 406.4 -18.36 L 410.85 -18.36 L 410.85 0 L 406.4 0 L 397.1 -11.23 L 397.1 0 Z M 426.52 -14.25 L 420.02 -14.25 L 420.02 -18.36 L 437.51 -18.36 L 437.51 -14.25 L 431 -14.25 L 431 0 L 426.52 0 L 426.52 -14.25 Z M 445.95 -14.25 L 439.45 -14.25 L 439.45 -18.36 L 456.94 -18.36 L 456.94 -14.25 L 450.43 -14.25 L 450.43 0 L 445.95 0 L 445.95 -14.25 Z M 464.39 0 L 459.96 0 L 459.96 -18.36 L 474.03 -18.36 L 474.03 -14.25 L 464.39 -14.25 L 464.39 -10.05 L 472.43 -10.05 L 472.43 -5.97 L 464.39 -5.97 L 464.39 0 Z M 487.49 0 L 482.8 0 L 490.65 -18.36 L 495.58 -18.36 L 503.47 0 L 498.75 0 L 497.56 -2.86 L 488.7 -2.86 L 487.49 0 Z M 493.16 -13.34 L 490.25 -6.49 L 496.02 -6.49 L 493.16 -13.34 Z M 503.82 -9.32 L 503.82 -9.32 Q 503.82 -11.22 504.58 -12.93 Q 505.33 -14.65 506.63 -15.91 Q 507.94 -17.18 509.8 -17.93 Q 511.66 -18.68 513.76 -18.68 L 513.76 -18.68 Q 516.64 -18.68 518.89 -17.45 Q 521.13 -16.22 522.4 -14.09 L 522.4 -14.09 L 518.64 -11.9 Q 517.97 -13.2 516.72 -13.94 Q 515.47 -14.69 513.76 -14.69 L 513.76 -14.69 Q 511.38 -14.69 509.84 -13.15 Q 508.31 -11.61 508.31 -9.32 L 508.31 -9.32 Q 508.31 -7.87 508.99 -6.62 Q 509.68 -5.37 510.94 -4.6 Q 512.2 -3.84 513.76 -3.84 L 513.76 -3.84 Q 515.4 -3.84 516.65 -4.59 Q 517.89 -5.34 518.59 -6.62 L 518.59 -6.62 L 522.35 -4.46 Q 521.06 -2.29 518.81 -0.98 Q 516.57 0.33 513.76 0.33 L 513.76 0.33 Q 511.64 0.33 509.79 -0.42 Q 507.94 -1.17 506.63 -2.46 Q 505.33 -3.74 504.58 -5.52 Q 503.82 -7.3 503.82 -9.32 Z M 523.88 -9.32 L 523.88 -9.32 Q 523.88 -11.22 524.63 -12.93 Q 525.38 -14.65 526.68 -15.91 Q 527.99 -17.18 529.85 -17.93 Q 531.71 -18.68 533.82 -18.68 L 533.82 -18.68 Q 536.69 -18.68 538.94 -17.45 Q 541.19 -16.22 542.45 -14.09 L 542.45 -14.09 L 538.69 -11.9 Q 538.02 -13.2 536.77 -13.94 Q 535.52 -14.69 533.82 -14.69 L 533.82 -14.69 Q 531.43 -14.69 529.89 -13.15 Q 528.36 -11.61 528.36 -9.32 L 528.36 -9.32 Q 528.36 -7.87 529.04 -6.62 Q 529.73 -5.37 530.99 -4.6 Q 532.25 -3.84 533.82 -3.84 L 533.82 -3.84 Q 535.45 -3.84 536.7 -4.59 Q 537.94 -5.34 538.64 -6.62 L 538.64 -6.62 L 542.4 -4.46 Q 541.11 -2.29 538.87 -0.98 Q 536.63 0.33 533.82 0.33 L 533.82 0.33 Q 531.69 0.33 529.84 -0.42 Q 527.99 -1.17 526.68 -2.46 Q 525.38 -3.74 524.63 -5.52 Q 523.88 -7.3 523.88 -9.32 Z M 543.64 -9.18 L 543.64 -9.18 Q 543.64 -11.1 544.38 -12.85 Q 545.13 -14.61 546.39 -15.89 Q 547.66 -17.17 549.41 -17.92 Q 551.17 -18.68 553.1 -18.68 L 553.1 -18.68 Q 555.02 -18.68 556.78 -17.92 Q 558.54 -17.17 559.8 -15.89 Q 561.07 -14.61 561.83 -12.85 Q 562.58 -11.09 562.58 -9.18 L 562.58 -9.18 Q 562.58 -7.25 561.83 -5.49 Q 561.08 -3.73 559.81 -2.46 Q 558.54 -1.19 556.78 -0.43 Q 555.02 0.33 553.1 0.33 L 553.1 0.33 Q 550.52 0.33 548.34 -0.95 Q 546.16 -2.23 544.9 -4.41 Q 543.64 -6.59 543.64 -9.18 Z M 547.69 -9.18 L 547.69 -9.18 Q 547.69 -6.93 549.27 -5.36 Q 550.86 -3.78 553.1 -3.78 L 553.1 -3.78 Q 555.32 -3.78 556.9 -5.36 Q 558.48 -6.93 558.48 -9.18 L 558.48 -9.18 Q 558.48 -11.39 556.9 -12.97 Q 555.32 -14.55 553.1 -14.55 L 553.1 -14.55 Q 550.86 -14.55 549.27 -12.98 Q 547.69 -11.4 547.69 -9.18 Z M 564.57 -9.43 L 564.57 -9.43 L 564.57 -18.36 L 569 -18.36 L 569 -9.43 Q 569 -6.75 570.12 -5.27 Q 571.25 -3.78 573.33 -3.78 L 573.33 -3.78 Q 575.4 -3.78 576.6 -5.29 Q 577.81 -6.79 577.81 -9.43 L 577.81 -9.43 L 577.81 -18.36 L 582.29 -18.36 L 582.29 -9.43 Q 582.29 -7.19 581.61 -5.34 Q 580.94 -3.49 579.74 -2.26 Q 578.54 -1.03 576.89 -0.35 Q 575.25 0.33 573.33 0.33 L 573.33 0.33 Q 569.37 0.33 566.97 -2.29 Q 564.57 -4.92 564.57 -9.43 Z M 589.65 0 L 585.19 0 L 585.19 -18.36 L 589.65 -18.36 L 598.94 -7.16 L 598.94 -18.36 L 603.4 -18.36 L 603.4 0 L 598.94 0 L 589.65 -11.23 L 589.65 0 Z M 612.67 -14.25 L 606.17 -14.25 L 606.17 -18.36 L 623.66 -18.36 L 623.66 -14.25 L 617.15 -14.25 L 617.15 0 L 612.67 0 L 612.67 -14.25 Z" stroke-linecap="round" />
</g>
</svg>